<svg version="1.1" viewBox="0.0 0.0 16.0 16.0" fill="none" stroke="none" stroke-linecap="square" stroke-miterlimit="10" xmlns:xlink="http://www.w3.org/1999/xlink" xmlns="http://www.w3.org/2000/svg"><clipPath id="p.0"><path d="m0 0l16.0 0l0 16.0l-16.0 0l0 -16.0z" clip-rule="nonzero"/></clipPath><g clip-path="url(#p.0)"><path fill="#000000" fill-opacity="0.0" d="m0 0l16.0 0l0 16.0l-16.0 0z" fill-rule="evenodd"/><path fill="#000000" fill-opacity="0.0" d="m1.007874 8.0l0 0c0 -3.8616447 3.1304812 -6.992126 6.992126 -6.992126l0 0c1.8544273 0 3.6329021 0.73666835 4.9441795 2.0479462c1.3112783 1.3112781 2.047946 3.0897524 2.047946 4.9441795l0 0c0 3.8616447 -3.1304808 6.9921255 -6.9921255 6.9921255l0 0c-3.8616447 0 -6.992126 -3.1304808 -6.992126 -6.9921255z" fill-rule="evenodd"/><path stroke="#000000" stroke-width="1.0" stroke-linejoin="round" stroke-linecap="butt" d="m1.007874 8.0l0 0c0 -3.8616447 3.1304812 -6.992126 6.992126 -6.992126l0 0c1.8544273 0 3.6329021 0.73666835 4.9441795 2.0479462c1.3112783 1.3112781 2.047946 3.0897524 2.047946 4.9441795l0 0c0 3.8616447 -3.1304808 6.9921255 -6.9921255 6.9921255l0 0c-3.8616447 0 -6.992126 -3.1304808 -6.992126 -6.9921255z" fill-rule="evenodd"/><path fill="#000000" fill-opacity="0.0" d="m15.181103 0.1312336l-16.0 0l0 16.0l16.0 0z" fill-rule="evenodd"/><path fill="#000000" d="m8.399853 5.540608q-0.43750048 0 -0.7500005 -0.296875q-0.296875 -0.3125 -0.296875 -0.75q0 -0.4375 0.296875 -0.75q0.3125 -0.3125 0.7500005 -0.3125q0.453125 0 0.765625 0.3125q0.3125 0.3125 0.3125 0.75q0 0.4375 -0.3125 0.75q-0.3125 0.296875 -0.765625 0.296875zm-0.9062505 7.4687495q-0.625 0 -1.03125 -0.390625q-0.390625 -0.40625 -0.390625 -1.203125q0 -0.34375 0.109375 -0.875l0.90625 -4.2656245l1.9218755 0l-0.96875 4.5312495q-0.046875477 0.1875 -0.046875477 0.421875q0 0.265625 0.12500048 0.375q0.125 0.109375 0.421875 0.109375q0.234375 0 0.421875 -0.078125q-0.046875 0.671875 -0.46875 1.03125q-0.421875 0.34375 -1.0000005 0.34375z" fill-rule="nonzero"/></g></svg>
