<?xml version="1.0" encoding="iso-8859-1"?>
<!-- Generator: Adobe Illustrator 16.0.0, SVG Export Plug-In . SVG Version: 6.00 Build 0)  -->
<!DOCTYPE svg PUBLIC "-//W3C//DTD SVG 1.1//EN" "http://www.w3.org/Graphics/SVG/1.1/DTD/svg11.dtd">
<svg version="1.1" id="Capa_1" xmlns="http://www.w3.org/2000/svg" xmlns:xlink="http://www.w3.org/1999/xlink" x="0px" y="0px"
     width="356.725px" height="356.725px" viewBox="0 0 356.725 356.725" style="enable-background:new 0 0 356.725 356.725;"
     xml:space="preserve">
<g>
    <g>
        <path d="M307.463,0h-46.35H95.611H49.259C27.905,0,10.53,17.381,10.53,38.73v279.264c0,21.352,17.375,38.73,38.729,38.73H124.3
            h108.125h75.037c21.357,0,38.732-17.379,38.732-38.73V38.73C346.196,17.381,328.821,0,307.463,0z M251.43,19.365v121.922H105.295
            V19.365H251.43z M133.981,337.359v-93.593h88.761v93.593H133.981z M326.83,317.994c0,10.676-8.686,19.365-19.366,19.365h-65.355
            V234.084c0-5.352-4.334-9.682-9.683-9.682H124.301c-5.348,0-9.684,4.33-9.684,9.682v103.275H49.26
            c-10.681,0-19.366-8.689-19.366-19.365V38.73c0-10.674,8.686-19.365,19.366-19.365h36.669v131.604
            c0,5.344,4.335,9.684,9.683,9.684h165.503c5.346,0,9.682-4.34,9.682-9.684V19.365h36.668c10.682,0,19.366,8.691,19.366,19.365
            L326.83,317.994L326.83,317.994z"/>
        <path d="M127.043,123.898h102.64c5.347,0,9.681-4.34,9.681-9.684c0-5.351-4.334-9.682-9.681-9.682h-102.64
            c-5.348,0-9.684,4.331-9.684,9.682C117.359,119.558,121.695,123.898,127.043,123.898z"/>
        <path d="M127.043,90.009h102.64c5.347,0,9.681-4.34,9.681-9.684c0-5.352-4.334-9.682-9.681-9.682h-102.64
            c-5.348,0-9.684,4.33-9.684,9.682C117.359,85.67,121.695,90.009,127.043,90.009z"/>
        <path d="M127.043,56.119h102.64c5.347,0,9.681-4.339,9.681-9.682c0-5.352-4.334-9.682-9.681-9.682h-102.64
            c-5.348,0-9.684,4.33-9.684,9.682C117.359,51.78,121.695,56.119,127.043,56.119z"/>
        <path d="M203.78,253.441c-5.35,0-9.684,4.34-9.684,9.682v27.439c0,5.344,4.334,9.684,9.684,9.684c5.347,0,9.683-4.34,9.683-9.684
            v-27.439C213.462,257.781,209.126,253.441,203.78,253.441z"/>
    </g>
</g>
</svg>
